<?xml version="1.0" standalone="no"?>
<!DOCTYPE svg PUBLIC "-//W3C//DTD SVG 20010904//EN"
 "http://www.w3.org/TR/2001/REC-SVG-20010904/DTD/svg10.dtd">
<svg version="1.0" xmlns="http://www.w3.org/2000/svg"
 width="260.000000pt" height="260.000000pt" viewBox="0 0 260.000000 260.000000"
 preserveAspectRatio="xMidYMid meet">
<metadata>
Created by potrace 1.11, written by Peter Selinger 2001-2013
</metadata>
<g transform="translate(0.000000,260.000000) scale(0.100000,-0.100000)"
fill="#000000" stroke="none">
<path d="M0 1300 l0 -1300 1300 0 1300 0 0 1300 0 1300 -1300 0 -1300 0 0
-1300z m1778 755 l412 -240 0 -515 0 -515 -437 -254 c-240 -140 -441 -254
-448 -254 -7 0 -208 114 -448 254 l-437 254 0 515 0 515 442 257 441 257 32
-17 c18 -9 217 -125 443 -257z"/>
<path d="M897 2012 l-407 -236 0 -476 0 -476 402 -234 c221 -128 407 -233 413
-233 6 0 192 105 413 233 l402 234 0 476 0 476 -377 219 c-207 121 -391 228
-408 237 l-32 17 -406 -237z m634 -281 c31 -12 83 -40 115 -63 l58 -42 -58
-52 -58 -53 -44 29 c-130 82 -313 59 -408 -52 -49 -57 -70 -130 -64 -228 6
-99 42 -170 112 -217 63 -43 116 -56 206 -51 72 5 128 25 192 70 15 11 25 5
73 -42 61 -60 61 -62 -9 -109 -138 -94 -359 -105 -516 -26 -133 67 -212 194
-227 362 -20 239 129 446 354 492 75 16 209 7 274 -18z"/>
</g>
</svg>
